<svg width="308" height="69" viewBox="0 0 308 69" fill="none" xmlns="http://www.w3.org/2000/svg">
<path fill-rule="evenodd" clip-rule="evenodd" d="M33.8597 0.618652C52.5997 0.618652 67.7195 15.8094 67.7195 34.4784C67.7195 53.1474 52.5997 68.4091 33.8597 68.4091C15.1198 68.4091 0 53.2184 0 34.4784C0 15.7384 15.1907 0.618652 33.8597 0.618652ZM33.8597 7.07827C49.0505 7.07827 61.3308 19.3586 61.3308 34.5494C61.3308 44.6292 55.865 53.5023 47.7018 58.2583C49.4054 52.2956 50.1152 46.1909 49.8313 39.1634C51.6059 39.6603 52.5997 39.9442 54.3743 40.5121C52.3158 35.3302 50.1152 30.6452 47.2049 25.8892C44.6494 30.7872 41.1712 35.4012 37.6929 39.0214L43.3717 38.6665C38.4737 47.3976 31.5882 51.6567 22.8571 52.8634C20.8695 42.9966 22.3602 26.883 33.5048 19.3586L34.6406 24.7535C36.8411 21.2752 41.1002 16.6612 44.2945 13.4669C39.2546 11.4793 33.4338 10.8405 27.755 11.9052C28.6778 12.6861 29.8136 13.6798 30.7364 14.4607C18.1721 19.7845 11.2866 28.5157 6.74355 38.6665C6.5306 37.3178 6.45961 35.8981 6.45961 34.5494C6.45961 19.3586 18.74 7.07827 33.8597 7.07827Z" fill="#81859C"/>
<path d="M92.0591 31.1928L94.4726 44.9638H99.8674L105.83 23.3135H100.577L97.312 37.3685L95.0405 23.3135H92.698H91.4203H89.0778L86.8063 37.3685L83.541 23.3135H78.2881L84.2508 44.9638H89.6456L92.0591 31.1928Z" fill="#81859C"/>
<path d="M109.167 44.9648L110.16 40.4928H115.626L116.62 44.9648H121.518L115.555 23.3145H110.16L104.269 44.9648H109.167ZM112.929 28.6383L114.774 36.8016H111.083L112.929 28.6383Z" fill="#81859C"/>
<path d="M128.687 36.8721H131.669L134.579 44.9644H139.974L136.141 35.9493C137.773 35.3814 138.838 33.9618 138.838 32.2581V27.4312C138.838 25.4436 137.489 23.9529 135.715 23.527C134.579 23.2431 133.443 23.314 132.236 23.314H124.073V44.9644H128.687V36.8721V36.8721ZM128.687 27.5021H132.591C133.443 27.5021 134.224 27.928 134.224 28.9218V31.0514C134.224 32.1161 133.514 32.613 132.591 32.613H128.687V27.5021Z" fill="#81859C"/>
<path d="M152.68 45.1776C154.952 45.1776 156.3 44.5388 157.436 43.687V32.1874H150.125V36.3045H152.822C152.822 37.7242 152.822 38.931 152.822 40.4217C152.396 40.4926 151.899 40.5636 151.402 40.5636H149.557C146.93 40.5636 146.291 38.718 146.291 36.7305V31.3356C146.291 29.2771 147.214 27.7864 149.699 27.7864H157.081V23.1724H149.415C145.156 23.1724 142.103 25.7278 141.677 30.1289C141.677 30.4838 141.606 30.8387 141.606 31.1936V37.4403C141.606 41.9833 144.73 45.1776 148.989 45.1776H152.68Z" fill="#81859C"/>
<path d="M163.825 44.9648L164.818 40.4928H170.284L171.278 44.9648H176.176L170.213 23.3145H164.818L158.927 44.9648H163.825ZM167.516 28.6383L169.362 36.8016H165.67L167.516 28.6383Z" fill="#81859C"/>
<path d="M194.135 31.6907V44.9648H198.607V23.3145H192.786L188.456 39.428L184.197 23.3145H178.376V44.9648H182.778V31.6907L186.114 44.9648H190.799L194.135 31.6907Z" fill="#81859C"/>
<path d="M207.054 44.9648V23.3145H202.44V44.9648H207.054Z" fill="#81859C"/>
<path d="M226.859 44.9648V23.3145H222.387V36.2337L215.43 23.3145H210.887V44.9648H215.288V32.0456L222.316 44.9648H226.859Z" fill="#81859C"/>
<path d="M272.928 44.9648V23.3145H268.456V36.2337L261.5 23.3145H256.957V44.9648H261.358V32.0456L268.385 44.9648H272.928Z" fill="#81859C"/>
<path d="M289.397 31.6907H281.092V27.5026H290.249V23.3145H276.478V44.9648H290.249V40.7767H281.092V35.8078H289.397V31.6907Z" fill="#81859C"/>
<path d="M307.64 27.5026V23.3145H292.591V27.5026H297.844V44.9648H302.458V27.5026H307.64Z" fill="#81859C"/>
<path d="M240.63 45.1776C242.902 45.1776 244.25 44.5388 245.386 43.687V32.1874H238.075V36.3045H240.772C240.772 37.7242 240.772 38.931 240.772 40.4217C240.346 40.4926 239.849 40.5636 239.353 40.5636H237.507C234.881 40.5636 234.242 38.718 234.242 36.7305V31.3356C234.242 29.2771 235.164 27.7864 237.649 27.7864H245.031V23.1724H237.365C233.106 23.1724 230.054 25.7278 229.628 30.1289C229.628 30.4838 229.557 30.8387 229.557 31.1936V37.4403C229.557 41.9833 232.68 45.1776 236.939 45.1776H240.63Z" fill="#81859C"/>
<path fill-rule="evenodd" clip-rule="evenodd" d="M249.077 40.9185H253.549V45.3195H249.077V40.9185Z" fill="#81859C"/>
</svg>
